<svg xmlns="http://www.w3.org/2000/svg" viewBox="0 0 60 60"><defs><style>.cls-1{fill:#fff;}.cls-2{fill:none;stroke:#414042;stroke-linecap:round;stroke-linejoin:round;}</style></defs><g id="Layer_2" data-name="Layer 2"><g id="Layer_1-2" data-name="Layer 1"><rect class="cls-1" width="60" height="60"/><path class="cls-2" d="M30,43.5h0a1.45,1.45,0,0,1-1.5-1.39V31.93l-2-1.43h7l-2,1.43V42.11A1.45,1.45,0,0,1,30,43.5Z"/><circle class="cls-2" cx="30" cy="20" r="3.5"/><path class="cls-2" d="M30,22a2,2,0,0,1-2-2"/><polyline class="cls-2" points="31 23.36 31 30.5 29 30.5 29 23.36"/><path class="cls-2" d="M31,25.55a3.6,3.6,0,0,1,2.38.83l2,2"/><path class="cls-2" d="M27.5,30.5v-2A3,3,0,0,1,29,25.9"/><rect class="cls-2" x="35.26" y="28.01" width="2" height="3" transform="translate(-10.48 30.79) rotate(-40.7)"/></g></g></svg>