<?xml version="1.0" encoding="utf-8"?>
<!-- Generator: Adobe Illustrator 25.0.0, SVG Export Plug-In . SVG Version: 6.00 Build 0)  -->
<svg version="1.1" id="Layer_1" xmlns="http://www.w3.org/2000/svg" xmlns:xlink="http://www.w3.org/1999/xlink" x="0px" y="0px"
	 viewBox="0 0 60 60" style="enable-background:new 0 0 60 60;" xml:space="preserve">
<style type="text/css">
	.st0{fill:#FFFFFF;}
	.st1{fill:none;stroke:#414042;stroke-linecap:round;stroke-linejoin:round;stroke-miterlimit:10;}
</style>
<rect class="st0" width="60" height="60"/>
<g>
	<path class="st1" d="M19.5,32.5c-0.6,0-1-0.4-1-1l0,0c0-0.6,0.4-1,1-1H23"/>
	<path class="st1" d="M29,30.5h11.5c0.6,0,1,0.4,1,1l0,0c0,0.6-0.4,1-1,1"/>
	<polyline class="st1" points="29,32.5 40.5,32.5 39.3,43.5 20.7,43.5 19.5,32.5 23,32.5 	"/>
	<path class="st1" d="M31.1,30.5c0.3-0.7,0.4-1.5,0.4-2.3c-0.2-2.8-2.6-5.2-5.4-5.2c-3.1,0-5.6,2.4-5.6,5.5c0,0.7,0.1,1.4,0.4,2
		l2.1,0v4c0,0.6,0.4,1,1,1l0,0c0.6,0,1-0.4,1-1v-2h2v1c0,0.6,0.4,1,1,1l0,0c0.6,0,1-0.4,1-1v-3h2"/>
	<path class="st1" d="M30,24.7c1-1.1,2.4-1.7,4-1.7c3,0,5.5,2.5,5.5,5.5c0,0.7-0.1,1.4-0.4,2"/>
	<path class="st1" d="M24.6,23.2c-0.1-0.4-0.1-0.8-0.1-1.2c0-3,2.5-5.5,5.5-5.5s5.5,2.5,5.5,5.5c0,0.4,0,0.8-0.1,1.1"/>
	<polyline class="st1" points="24.2,23.3 19,17.9 20.4,16.5 24.6,20.9 	"/>
	<line class="st1" x1="20.4" y1="19.3" x2="21.1" y2="17.2"/>
	<line class="st1" x1="21.8" y1="20.8" x2="22.5" y2="18.7"/>
	<line class="st1" x1="23.1" y1="22.2" x2="23.9" y2="20.1"/>
</g>
</svg>
